<?xml version="1.0" encoding="UTF-8" standalone="no"?>
<svg
   xmlns:dc="http://purl.org/dc/elements/1.1/"
   xmlns:cc="http://creativecommons.org/ns#"
   xmlns:rdf="http://www.w3.org/1999/02/22-rdf-syntax-ns#"
   xmlns:svg="http://www.w3.org/2000/svg"
   xmlns="http://www.w3.org/2000/svg"
   xmlns:sodipodi="http://sodipodi.sourceforge.net/DTD/sodipodi-0.dtd"
   xmlns:inkscape="http://www.inkscape.org/namespaces/inkscape"
   version="1.0"
   width="420"
   height="280"
   id="svg2"
   sodipodi:version="0.32"
   inkscape:version="0.48.4 r9939"
   sodipodi:docname="lesotho.svg"
   inkscape:output_extension="org.inkscape.output.svg.inkscape">
  <metadata
     id="metadata20">
    <rdf:RDF>
      <cc:Work
         rdf:about="">
        <dc:format>image/svg+xml</dc:format>
        <dc:type
           rdf:resource="http://purl.org/dc/dcmitype/StillImage" />
        <dc:title />
      </cc:Work>
    </rdf:RDF>
  </metadata>
  <sodipodi:namedview
     inkscape:window-height="714"
     inkscape:window-width="1024"
     inkscape:pageshadow="2"
     inkscape:pageopacity="0.0"
     guidetolerance="10.0"
     gridtolerance="10.0"
     objecttolerance="10.0"
     borderopacity="1.0"
     bordercolor="#666666"
     pagecolor="#ffffff"
     id="base"
     showgrid="false"
     inkscape:zoom="1.4142136"
     inkscape:cx="206.22609"
     inkscape:cy="138.01878"
     inkscape:window-x="-4"
     inkscape:window-y="-4"
     inkscape:current-layer="svg2"
     inkscape:window-maximized="1" />
  <defs
     id="defs28">
    <inkscape:perspective
       sodipodi:type="inkscape:persp3d"
       inkscape:vp_x="0 : 140 : 1"
       inkscape:vp_y="0 : 1000 : 0"
       inkscape:vp_z="560 : 140 : 1"
       inkscape:persp3d-origin="280 : 93.333333 : 1"
       id="perspective20" />
  </defs>
  <rect
     style="fill:#00209f;fill-opacity:1;fill-rule:evenodd;stroke:none"
     id="rect3035"
     width="420"
     height="87.63604"
     x="0"
     y="0.30908501" />
  <path
     inkscape:connector-curvature="0"
     id="path3811"
     d="m 0,86.883725 0,109.556345 420,0 0,-109.556345 -420,0 z"
     style="fill:#ffffff;fill-opacity:1;stroke:none" />
  <rect
     style="fill:#009543;fill-opacity:1;stroke:none"
     id="rect3807"
     width="420"
     height="84.80761"
     x="0"
     y="196.33348" />
  <path
     style="fill:#000000"
     d="m 199.23586,192.70885 c -9.83121,-1.11265 -20.61607,-4.15345 -29.42224,-8.29563 -4.74469,-2.23177 -5.17617,-2.55653 -4.77245,-3.59212 0.24412,-0.62619 2.01325,-4.43811 3.93141,-8.47092 l 3.48755,-7.3324 2.15126,0.75901 2.15126,0.75901 10.78839,-14.50877 10.78839,-14.50878 -0.91122,-2.41583 c -5.85609,-15.52565 -6.98346,-24.44842 -4.06917,-32.20611 2.08679,-5.554884 5.3757,-8.930726 10.58072,-10.860365 1.37814,-0.510914 3.17665,-1.390112 3.99669,-1.953772 1.56922,-1.078614 3.60952,-0.938872 5.18459,0.355094 0.44058,0.361957 2.22373,1.089343 3.96254,1.616413 2.43213,0.73723 3.79921,1.596048 5.92587,3.722713 7.27491,7.274897 7.74266,20.447247 1.2885,36.285267 -0.85824,2.10606 -1.56126,4.12316 -1.56227,4.48244 -0.001,0.35928 4.88484,7.08825 10.85744,14.95327 11.17809,14.71986 11.13751,14.68031 14.10566,13.75097 1.1103,-0.34765 1.48064,0.21457 4.95916,7.52855 2.06758,4.34734 3.64222,8.2092 3.4992,8.5819 -0.3759,0.97961 -9.37136,5.17937 -15.1106,7.05477 -12.55618,4.10298 -28.78166,5.76985 -41.81068,4.29529 z m 3.44437,-6.78652 c -2.33406,-3.95126 -2.53779,-4.07967 -5.26218,-3.31689 -2.83033,0.79244 -3.25904,1.22477 -2.52559,2.54686 0.45764,0.82493 2.44986,1.35905 8.24542,2.21064 0.2369,0.0348 0.031,-0.61347 -0.45765,-1.44061 z m 15.24721,1.19959 c 0,-0.8066 -3.34547,-5.03615 -3.98347,-5.03615 -0.60582,0 -6.57109,2.04896 -7.14064,2.45268 -0.0969,0.0687 0.23114,0.74653 0.72898,1.50633 0.86118,1.31433 1.1357,1.38145 5.65015,1.38145 2.60974,0 4.74498,-0.13694 4.74498,-0.30431 z m 11.72925,-1.72899 c 0.87842,-0.33298 0.79469,-0.57889 -0.83874,-2.4632 l -1.81459,-2.09329 -2.70384,1.26641 c -3.20652,1.50185 -3.40421,1.74759 -2.60593,3.23919 0.55687,1.04053 0.89497,1.11008 3.79927,0.78149 1.75339,-0.19837 3.62712,-0.52714 4.16383,-0.7306 z m -39.50098,-1.44162 c -1.4371,-3.77988 -2.11137,-4.56147 -3.62022,-4.1965 -3.18285,0.76989 -3.78029,1.16632 -3.48122,2.30998 0.35534,1.35878 0.71746,1.59024 3.83066,2.44851 3.68353,1.01549 3.85907,0.98533 3.27078,-0.56199 z m 49.27385,-0.84945 c 2.17301,-0.56975 2.16864,-0.81818 -0.0642,-3.64595 l -1.02234,-1.29476 -2.33064,1.79831 c -1.28185,0.98906 -2.41019,1.85151 -2.50742,1.91657 -0.0972,0.065 0.10275,0.64058 0.44441,1.27898 0.65307,1.22027 0.62222,1.22057 5.48015,-0.0531 z m -30.07739,-1.87903 c 2.07287,-0.76834 3.76519,-1.54938 3.76069,-1.73565 -0.0332,-1.37432 -1.27864,-1.82034 -5.80356,-2.07833 -2.67804,-0.1527 -4.86917,-0.15441 -4.86917,-0.004 0,0.39864 2.72666,5.21477 2.95235,5.21477 0.10495,0 1.88681,-0.62865 3.95969,-1.39699 z m 15.96166,-2.09281 c 0.0972,-0.0864 -0.0915,-0.65826 -0.41932,-1.27087 -0.63792,-1.19195 -2.27589,-1.37755 -6.02361,-0.68252 l -1.99379,0.36976 1.3536,2.26482 1.3536,2.26482 2.77637,-1.39449 c 1.52701,-0.76697 2.85592,-1.46515 2.95315,-1.55152 z m -47.11562,1.57696 c -0.17829,-0.46461 -0.32416,-1.19015 -0.32416,-1.61231 0,-0.56598 -0.3857,-0.67584 -1.46862,-0.4183 -2.94179,0.69961 -3.20748,1.14616 -1.20161,2.01963 2.45921,1.07086 3.40243,1.07432 2.99439,0.011 z m 19.99314,-1.03898 c 0.28309,-0.17497 0.13661,-0.8606 -0.33892,-1.58635 -0.59612,-0.9098 -1.68405,-1.45394 -3.77473,-1.88797 -1.61547,-0.33537 -3.01181,-0.52868 -3.10298,-0.42959 -0.0912,0.0991 0.39269,1.43677 1.07524,2.97263 l 1.241,2.79247 2.2009,-0.77653 c 1.21049,-0.42708 2.42526,-0.91519 2.69949,-1.08466 z m 49.95926,-0.0456 c 0.70703,-0.17744 1.2855,-0.40859 1.2855,-0.51364 0,-0.51962 -1.84217,-3.96556 -2.11995,-3.96556 -0.59565,0 -2.15241,3.09439 -2.15241,4.27838 0,0.85672 0.23113,1.08764 0.85068,0.8499 0.46788,-0.17954 1.42916,-0.47162 2.13618,-0.64907 z m -13.29329,-1.60144 c 2.21305,-1.81342 2.3014,-1.98637 1.47892,-2.89519 -0.81611,-0.90179 -1.05957,-0.91245 -3.63375,-0.15906 -1.51747,0.44412 -2.93009,0.96875 -3.13916,1.16584 -0.37029,0.34907 2.02239,3.81704 2.63353,3.81704 0.16875,0 1.36596,-0.86788 2.66046,-1.92863 z m -48.09897,-0.90316 c 0.12895,-0.12895 -0.0483,-0.85513 -0.39398,-1.61373 -0.4214,-0.92487 -1.427,-1.65137 -3.05238,-2.20519 -3.81886,-1.30122 -3.90191,-1.22908 -2.69602,2.34177 l 1.06975,3.16769 2.41908,-0.72804 c 1.3305,-0.40042 2.5246,-0.83354 2.65355,-0.9625 z m -11.68804,-0.17503 c 1.33532,-0.35784 1.46929,-1.02598 0.64203,-3.20184 l -0.55958,-1.47181 -1.29291,2.1046 c -1.85108,3.01316 -1.69364,3.34732 1.21046,2.56905 z m 70.66511,-3.73904 c 0.51408,-0.96057 0.51681,-1.39782 0.0125,-2.00546 -0.55975,-0.67446 -0.99684,-0.6308 -3.31048,0.33071 -2.8892,1.20069 -2.95939,1.53485 -0.87467,4.16413 l 1.19776,1.51064 1.15873,-1.38582 c 0.6373,-0.76219 1.45457,-1.93858 1.81615,-2.6142 z m -41.78368,-43.14115 c 1.61923,-2.25475 1.69266,-2.57909 1.69266,-7.47663 l 0,-5.11964 -2.73146,0 -2.73145,0 3.2655,-3.49083 3.2655,-3.49084 0,-7.19007 c 0,-8.216561 0.0158,-8.195342 -4.06648,-5.454422 -1.89192,1.270264 -3.01786,2.585152 -4.19921,4.903872 -1.53612,3.01509 -1.61332,3.47974 -1.59702,9.61282 0.0135,5.0866 0.27185,7.31407 1.22599,10.5709 1.42208,4.85412 3.28414,9.49184 3.81099,9.49184 0.20477,0 1.13401,-1.06065 2.06498,-2.357 z m 18.56585,-7.21563 c 2.37963,-8.21163 2.22842,-15.26251 -0.44182,-20.60093 -1.42493,-2.848758 -2.4286,-3.922695 -4.79461,-5.130256 -3.6092,-1.842064 -3.62608,-1.815144 -3.62608,5.784416 l 0,6.79567 3.59048,3.61821 3.59049,3.6182 -2.5224,0 -2.52239,0 0,5.50227 c 0,5.3393 0.0502,5.57046 1.6933,7.8048 l 1.6933,2.30253 1.01094,-2.57365 c 0.55602,-1.41551 1.60397,-4.62007 2.32879,-7.12126 z"
     id="path3871"
     inkscape:connector-curvature="0" />
</svg>
